HIERARCHY
ROOT Hips
{
 OFFSET 0.000000 0.000000 0.000000
 CHANNELS 6 Xposition Yposition Zposition Yrotation Xrotation Zrotation
 JOINT Chest
 {
  OFFSET 0.000000 9.857222 0.000240
  CHANNELS 3 Yrotation Xrotation Zrotation
  JOINT Chest2
  {
   OFFSET 0.000000 10.876940 -0.000436
   CHANNELS 3 Yrotation Xrotation Zrotation
   JOINT Chest3
   {
    OFFSET 0.000000 9.827798 0.000000
    CHANNELS 3 Yrotation Xrotation Zrotation
    JOINT Chest4
    {
     OFFSET 0.000000 9.827798 0.000000
     CHANNELS 3 Yrotation Xrotation Zrotation
     JOINT Neck
     {
      OFFSET 0.000000 13.831992 0.000000
      CHANNELS 3 Yrotation Xrotation Zrotation
      JOINT Head
      {
       OFFSET 0.000000 9.147643 -0.001036
       CHANNELS 3 Yrotation Xrotation Zrotation
       End Site
       {
        OFFSET 0.000000 17.515799 -0.000541
       }
      }
     }
     JOINT RightCollar
     {
      OFFSET -3.001579 7.717577 0.000000
      CHANNELS 3 Yrotation Xrotation Zrotation
      JOINT RightShoulder
      {
       OFFSET -14.002642 0.000000 0.000000
       CHANNELS 3 Yrotation Xrotation Zrotation
       JOINT RightElbow
       {
        OFFSET -30.053852 0.000000 0.000000
        CHANNELS 3 Yrotation Xrotation Zrotation
        JOINT RightWrist
        {
         OFFSET -24.564923 0.000000 -0.000000
         CHANNELS 3 Yrotation Xrotation Zrotation
         End Site
         {
          OFFSET -18.334355 0.000000 0.000000
         }
        }
       }
      }
     }
     JOINT LeftCollar
     {
      OFFSET 3.001579 7.717577 0.000000
      CHANNELS 3 Yrotation Xrotation Zrotation
      JOINT LeftShoulder
      {
       OFFSET 14.002642 0.000000 0.000000
       CHANNELS 3 Yrotation Xrotation Zrotation
       JOINT LeftElbow
       {
        OFFSET 30.053852 0.000000 0.000000
        CHANNELS 3 Yrotation Xrotation Zrotation
        JOINT LeftWrist
        {
         OFFSET 24.564923 0.000000 -0.000000
         CHANNELS 3 Yrotation Xrotation Zrotation
         End Site
         {
          OFFSET 18.334355 0.000000 0.000000
         }
        }
       }
      }
     }
    }
   }
  }
 }
 JOINT RightHip
 {
  OFFSET -8.003235 -0.001175 -0.000120
  CHANNELS 3 Yrotation Xrotation Zrotation
  JOINT RightKnee
  {
   OFFSET 0.000000 -41.759727 0.000113
   CHANNELS 3 Yrotation Xrotation Zrotation
   JOINT RightAnkle
   {
    OFFSET 0.000000 -40.728748 0.000159
    CHANNELS 3 Yrotation Xrotation Zrotation
    JOINT RightToe
    {
     OFFSET 0.000000 -6.515296 14.732841
     CHANNELS 3 Yrotation Xrotation Zrotation
     End Site
     {
      OFFSET 0.000000 -1.502839 6.412115
     }
    }
   }
  }
 }
 JOINT LeftHip
 {
  OFFSET 8.003235 -0.001175 -0.000120
  CHANNELS 3 Yrotation Xrotation Zrotation
  JOINT LeftKnee
  {
   OFFSET 0.000000 -41.759727 0.000113
   CHANNELS 3 Yrotation Xrotation Zrotation
   JOINT LeftAnkle
   {
    OFFSET 0.000000 -40.728748 0.000159
    CHANNELS 3 Yrotation Xrotation Zrotation
    JOINT LeftToe
    {
     OFFSET 0.000000 -6.515296 14.732841
     CHANNELS 3 Yrotation Xrotation Zrotation
     End Site
     {
      OFFSET 0.000000 -1.502839 6.412115
     }
    }
   }
  }
 }
}
MOTION
Frames: 11
Frame Time: 0.016667
0.000000 88.822259 0.000000 0.000000 -5.826342 0.000000 0.000000 11.116423 0.000000 0.000000 -5.290081 0.000000 0.000000 0.000000 0.000000 0.000000 0.000000 0.000000 0.000000 12.665069 0.000000 0.000000 0.575450 0.000000 0.000000 0.000000 0.000000 0.000000 0.000000 0.000000 2.337306 0.000000 0.000000 -2.337306 0.000000 0.000000 0.000000 0.000000 0.000000 0.000000 0.000000 0.000000 -2.337306 0.000000 0.000000 2.337306 0.000000 0.000000 0.000000 8.578828 0.000000 0.000000 1.905768 0.000000 0.000000 -4.658254 0.000000 0.000000 0.000000 0.000000 0.000000 8.578828 0.000000 0.000000 1.905768 0.000000 0.000000 -4.658254 0.000000 0.000000 0.000000 0.000000
3.494277 89.958094 17.068983 -36.299054 -5.722092 0.384149 8.088803 -1.237941 -0.578932 1.607233 -1.598631 -0.215343 1.607233 -1.598631 -0.215343 1.204784 -1.199549 -0.157293 2.778792 28.087910 1.229409 4.690502 15.972914 1.623422 0.478183 21.302720 13.212138 33.386296 -1.385743 79.188451 30.215833 3.525051 -1.114792 -2.625323 -2.612957 -11.679814 -20.556968 24.648869 -18.487638 -39.759575 18.269500 -79.598890 -49.474829 -15.509229 20.600064 8.759858 4.329804 15.445599 -1.913388 4.815743 -2.657202 5.056224 12.465705 -3.051800 -0.646694 -10.168903 2.504395 1.620966 -0.648274 0.855501 -23.709031 12.522110 -0.631722 26.454689 12.885993 -10.418811 14.144819 -16.684122 1.632606 -3.783600 0.094333 -1.738789
3.564451 89.898516 17.132186 -36.842593 -5.684902 0.184933 8.620619 -1.108811 -0.391812 1.610191 -1.607128 -0.189579 1.610191 -1.607128 -0.189579 1.207065 -1.205855 -0.137941 2.772724 28.046232 1.230580 4.679198 15.895454 1.625435 0.494250 21.342412 13.163742 33.284240 -1.455251 78.872950 30.916946 3.262586 -1.224816 -2.699259 -2.658518 -11.637941 -20.544265 24.652090 -18.480148 -39.466011 18.082611 -79.450006 -49.920932 -15.406587 20.850089 8.783517 4.367826 15.471981 -1.293808 4.513469 -2.234734 4.860062 12.965236 -3.343131 -0.996636 -10.291269 2.560703 1.996801 -0.707238 0.977806 -22.691334 12.205493 -0.357043 26.251246 13.671563 -10.144380 14.232520 -17.130907 1.626997 -4.143386 0.175264 -1.902178
3.637194 89.809137 17.186210 -37.281389 -5.502555 -0.050461 9.008715 -1.137922 -0.232008 1.623334 -1.608423 -0.158228 1.623334 -1.608423 -0.158228 1.217004 -1.206748 -0.114391 2.769754 27.982505 1.239276 4.671724 15.776881 1.639519 0.531036 21.387958 13.163630 33.326443 -1.483872 78.531114 31.590333 2.998223 -1.267248 -2.734037 -2.673652 -11.594967 -20.540478 24.634475 -18.458546 -39.007572 17.913652 -79.301709 -50.388581 -15.109822 20.943259 8.818665 4.412781 15.491142 -1.011609 4.009364 -1.761138 4.794582 13.516172 -3.672161 -1.332267 -10.494557 2.596326 2.413338 -0.702796 1.125154 -22.263533 11.718115 -0.108954 26.323854 14.526839 -9.946334 14.587675 -17.749907 1.601221 -4.430321 0.333616 -2.049426
3.756584 89.702368 17.204041 -37.667649 -5.160553 -0.238721 9.333498 -1.312729 -0.165801 1.640295 -1.592556 -0.129141 1.640295 -1.592556 -0.129141 1.229805 -1.194774 -0.092575 2.767071 27.894799 1.262840 4.661541 15.613389 1.679247 0.548007 21.388884 13.203108 33.537590 -1.494874 78.186581 32.124846 2.761462 -1.244639 -2.738985 -2.655529 -11.606790 -20.579016 24.578260 -18.431992 -38.450137 17.736097 -79.139832 -50.815722 -14.672121 20.907865 8.849471 4.438476 15.523720 -1.008560 3.313061 -1.329837 4.833660 14.088329 -4.064951 -1.705213 -10.762606 2.628089 2.951544 -0.645230 1.331871 -21.739925 11.134949 0.248277 26.271557 15.196617 -9.968636 14.971736 -18.340416 1.781841 -4.877273 0.553891 -2.266286
3.853760 89.598385 17.208371 -37.966184 -4.923919 -0.400990 9.574473 -1.404559 -0.090884 1.655547 -1.551340 -0.116390 1.655547 -1.551340 -0.116390 1.241289 -1.163830 -0.083085 2.763043 27.802224 1.295643 4.646988 15.440606 1.735552 0.579000 21.403686 13.307423 33.954806 -1.479169 77.744462 32.486520 2.493569 -1.110070 -2.726804 -2.599016 -11.721859 -20.647930 24.532529 -18.411078 -37.925490 17.540459 -78.969864 -51.178451 -14.193869 20.810936 8.883902 4.477112 15.547482 -0.986431 2.675251 -0.768781 4.714146 14.779747 -4.605192 -2.314218 -11.039565 2.546808 3.714567 -0.640405 1.682616 -21.172948 10.690993 0.533227 25.936440 15.693898 -10.065664 15.468946 -18.871911 2.047196 -5.424897 0.770894 -2.513356
3.897077 89.514310 17.234013 -38.223130 -4.882147 -0.478386 9.783321 -1.305164 -0.012428 1.660923 -1.495089 -0.129920 1.660923 -1.495089 -0.129920 1.245304 -1.121680 -0.093371 2.768484 27.724680 1.329185 4.649170 15.295795 1.791710 0.672950 21.484062 13.463729 34.597230 -1.495601 77.213885 32.600585 2.237818 -1.067316 -2.724026 -2.546215 -11.806415 -20.686191 24.533907 -18.415369 -37.568880 17.383668 -78.766694 -51.479927 -13.805031 20.619598 8.960284 4.547006 15.572896 -1.014837 2.284974 -0.204803 4.553501 15.457499 -5.226631 -3.109115 -11.311253 2.375636 4.637613 -0.682956 2.129173 -20.704112 10.384296 0.609134 25.592459 16.179475 -10.082788 16.197593 -19.298081 2.233341 -6.086240 0.875072 -2.790351
3.873523 89.443733 17.220748 -38.262687 -4.762559 -0.522870 9.771779 -1.246459 0.058879 1.660597 -1.449445 -0.166997 1.660597 -1.449445 -0.166997 1.244985 -1.087547 -0.121303 2.787674 27.669089 1.363933 4.675677 15.191814 1.847840 0.764051 21.599174 13.586746 35.406816 -1.595304 76.709128 32.414952 1.994651 -1.123327 -2.750475 -2.464735 -11.842290 -20.745437 24.522446 -18.488285 -37.556355 17.478945 -78.456437 -51.769304 -13.781363 20.391425 9.040540 4.579062 15.635852 -0.922700 1.777887 0.539782 4.190342 16.262247 -6.019017 -4.261755 -11.484546 2.116002 5.759334 -0.895817 2.673915 -20.584836 10.012513 0.685151 25.239627 16.641358 -10.137912 16.984574 -19.696406 2.352226 -6.702334 0.965918 -3.041382
3.801607 89.384050 17.104020 -38.743272 -4.640797 -0.547860 10.208776 -1.267447 0.179417 1.660434 -1.396919 -0.218597 1.660434 -1.396919 -0.218597 1.244764 -1.048292 -0.160145 2.814613 27.651291 1.400946 4.715762 15.157987 1.907533 0.751927 21.569184 13.623071 36.247619 -1.649844 76.423562 31.962332 1.833016 -1.207812 -2.778567 -2.401551 -11.855752 -20.792244 24.445688 -18.555837 -37.937658 17.784151 -78.206536 -51.987796 -14.138289 20.342831 9.078541 4.586925 15.656214 0.182961 1.066512 1.353677 3.186698 17.260453 -6.842140 -5.167932 -11.573981 1.835116 6.688188 -1.220056 3.151273 -20.517251 9.662420 0.765097 25.220786 17.087982 -10.186194 17.832892 -19.976856 2.374716 -7.275739 0.977643 -3.281406
3.731751 89.339326 16.945032 -39.207061 -4.585849 -0.452300 10.681654 -1.253885 0.197435 1.653229 -1.350330 -0.277508 1.653229 -1.350330 -0.277508 1.239251 -1.013507 -0.204470 2.844227 27.673642 1.431538 4.762261 15.198875 1.956484 0.747054 21.526772 13.652019 36.998702 -1.759185 76.298745 31.291835 1.730969 -1.319320 -2.806783 -2.339597 -11.850681 -20.796077 24.366606 -18.566268 -38.448595 18.033363 -78.066341 -52.041903 -14.581041 20.385418 9.098166 4.585754 15.664579 1.017891 0.423465 1.870305 2.208846 18.140936 -7.536108 -5.545006 -11.670232 1.621687 7.263910 -1.460952 3.445921 -21.228531 9.387338 0.645934 25.983315 17.461536 -10.315088 18.541408 -20.134694 2.459535 -7.785278 0.917568 -3.509614
3.661363 89.314295 16.780619 -39.324816 -4.674582 -0.283775 10.821561 -1.163089 0.123823 1.650286 -1.295955 -0.332581 1.650286 -1.295955 -0.332581 1.236957 -0.972873 -0.245927 2.880012 27.730010 1.457922 4.820916 15.303060 1.997755 0.789492 21.513882 13.703321 37.579088 -1.985909 76.319814 30.455466 1.749474 -1.539375 -2.863743 -2.328204 -11.769163 -20.782098 24.298459 -18.560275 -38.974154 18.230221 -77.971021 -51.913835 -15.043389 20.486717 9.101940 4.558349 15.673430 1.071548 0.039775 2.062615 1.776327 18.889841 -7.969622 -5.548185 -11.802339 1.500775 7.409937 -1.624803 3.531237 -22.084553 9.382443 0.467590 26.851589 17.567981 -10.433067 18.532974 -20.107312 2.591886 -7.970663 0.878366 -3.613877
